# AST/ASF file generated using VICON BodyLanguage
# -----------------------------------------------
:version 1.10
:name VICON
:units
  mass 1.0
  length 0.45
  angle deg
:documentation
   .ast/.asf automatically generated from VICON data using
   VICON BodyBuilder and BodyLanguage model FoxedUp or BRILLIANT.MOD
:root
   order TX TY TZ RX RY RZ
   axis XYZ
   position 0 0 0  
   orientation 0 0 0 
:bonedata
  begin
     id 1 
     name lhipjoint
     direction 0.596438 -0.722117 0.35044 
     length 2.43043 
     axis 0 0 0  XYZ
  end
  begin
     id 2 
     name lfemur
     direction 0.34202 -0.939693 0  
     length 7.0339  
     axis 0 0 20  XYZ
    dof rx ry rz
    limits (-160.0 20.0)
           (-70.0 70.0)
           (-60.0 70.0)
  end
  begin
     id 3 
     name ltibia
     direction 0.34202 -0.939693 0   
     length 7.56602   
     axis 0 0 20   XYZ
    dof rx
    limits (-10.0 170.0)
  end
  begin
     id 4 
     name lfoot
     direction 0.0985677 -0.270812 0.957572   
     length 1.85172   
     axis -90 7.62852e-016 20   XYZ
    dof rx rz
    limits (-45.0 90.0)
           (-70.0 20.0)
  end
  begin
     id 5 
     name ltoes
     direction 1.53534e-011 -4.21843e-011 1   
     length 0.929904   
     axis -90 7.62852e-016 20   XYZ
    dof rx
    limits (-90.0 20.0)
  end
  begin
     id 6 
     name rhipjoint
     direction -0.585088 -0.729594 0.354068   
     length 2.40552  
     axis 0 0 0  XYZ 
  end
  begin
     id 7 
     name rfemur
     direction -0.34202 -0.939693 0   
     length 7.12573   
     axis 0 0 -20   XYZ
    dof rx ry rz
    limits (-160.0 20.0)
           (-70.0 70.0)
           (-70.0 60.0)
  end
  begin
     id 8 
     name rtibia
     direction -0.34202 -0.939693 0   
     length 7.35777   
     axis 0 0 -20   XYZ
    dof rx
    limits (-10.0 170.0)
 end
 begin
     id 9 
     name rfoot
     direction -0.120907 -0.33219 0.935431   
     length 2.0994  
     axis -90 -7.62852e-016 -20   XYZ
    dof rx rz
    limits (-45.0 90.0)
           (-20.0 70.0)
  end
  begin
     id 10 
     name rtoes
     direction -1.53577e-011 -4.21787e-011 1   
     length 1.04244   
     axis -90 -7.62852e-016 -20   XYZ
    dof rx
    limits (-90.0 20.0)
  end
  begin
     id 11 
     name lowerback
     direction 0.00268363 0.993603 -0.112896   
     length 2.15839   
     axis 0 0 0   XYZ
    dof rx ry rz
    limits (-20.0 45.0)
           (-30.0 30.0)
           (-30.0 30.0)
  end
  begin
     id 12 
     name upperback
     direction 0.0272563 0.999411 -0.0208618   
     length 2.16443   
     axis 0 0 0   XYZ
    dof rx ry rz
    limits (-20.0 45.0)
           (-30.0 30.0)
           (-30.0 30.0)
  end
  begin
     id 13 
     name thorax
     direction 0.0254655 0.999174 0.0316806   
     length 2.19003   
     axis 0 0 0   XYZ
    dof rx ry rz
    limits (-20.0 45.0)
           (-30.0 30.0)
           (-30.0 30.0)
  end
  begin
     id 14 
     name lowerneck
     direction -0.0102178 0.988048 0.15381   
     length 1.61507   
     axis 0 0 0   XYZ
    dof rx ry rz
    limits (-20.0 45.0)
           (-30.0 30.0)
           (-30.0 30.0)
  end
  begin
     id 15 
     name upperneck
     direction -0.0061965 0.994088 -0.108398   
     length 1.64042   
     axis 0 0 0   XYZ
    dof rx ry rz
    limits (-20.0 45.0)
           (-30.0 30.0)
           (-30.0 30.0)
  end
  begin
     id 16
     name head
     direction -0.00151929 0.998591 -0.0530385  
     length 1.64343  
     axis 0 0 0   XYZ
    dof rx ry rz
    limits (-20.0 45.0)
           (-30.0 30.0)
           (-30.0 30.0)
  end
  begin
     id 17 
     name lclavicle
     direction 0.948974 0.284245 -0.136574  
     length 3.3483  
     axis 0 0 0   XYZ
    dof ry rz
    limits (-20.0 10.0)
           (0.0 20.0)
  end
  begin
     id 18 
     name lhumerus
     direction 1 -4.48961e-011 1.68576e-027   
     length 4.93485   
     axis -180 -30 -90   XYZ
    dof rx ry rz
    limits (-60.0 90.0)
           (-90.0 90.0)
           (-90.0 90.0)
  end
  begin
     id 19
     name lradius
     direction 1 -4.48965e-011 -2.46405e-027   
     length 3.41719   
     axis -180 -30 -90   XYZ
    dof rx
    limits (-10.0 170.0)
  end
  begin
     id 20
     name lwrist
     direction 1 -4.48968e-011 -8.00486e-028   
     length 1.7086   
     axis 3.27501e-015 90 90   XYZ
    dof ry
    limits (-180.0 0.0)
 end
  begin
     id 21 
     name lhand
     direction 1 -4.48977e-011 -1.60161e-027   
     length 0.6241   
     axis 1.02148e-015 90 90   XYZ
    dof rx rz
    limits (-90.0 90.0)
           (-45.0 45.0)
  end
  begin
     id 22 
     name lfingers
     direction 1 -4.49049e-011 -3.21275e-027   
     length 0.503166   
     axis 2.04295e-015 90 90   XYZ
    dof rx
    limits (0.0 90.0)
  end
  begin
     id 23
     name lthumb
     direction 0.707107 -6.34975e-011 0.707107   
     length 0.722448   
     axis -90 45 -1.62303e-014   XYZ
    dof rx rz
    limits (-45.0 45.0)
           (-45.0 45.0)
  end
  begin
     id 24 
     name rclavicle
     direction -0.904485 0.355099 -0.236246   
     length 3.18329  
     axis 0 0 0   XYZ 
    dof ry rz
    limits (-10.0 20.0)
           (-20.0 0.0)
  end
  begin
     id 25 
     name rhumerus
     direction -1 -4.48953e-011 1.32816e-027  
     length 5.22034   
     axis -180 30 90   XYZ
    dof rx ry rz
    limits (-90.0 60.0)
           (-90.0 90.0)
           (-90.0 90.0)
  end
  begin
     id 26 
     name rradius
     direction -1 -4.48965e-011 -3.93727e-027   
     length 3.41809   
     axis -180 30 90   XYZ
    dof rx
    limits (-10.0 170.0)
  end
  begin
     id 27 
     name rwrist
     direction -1 -4.48962e-011 -8.003e-028   
     length 1.70904   
     axis 3.27501e-015 -90 -90   XYZ
    dof ry
    limits (-180.0 0.0)
  end
  begin
     id 28
     name rhand
     direction -1 -4.49008e-011 -1.60365e-027   
     length 0.77534   
     axis 1.02148e-015 -90 -90   XYZ
    dof rx rz
    limits (-90.0 90.0)
           (-45.0 45.0)
  end
  begin
     id 29
     name rfingers
     direction -1 -4.49001e-011 -3.2064e-027   
     length 0.625099   
     axis 2.04295e-015 -90 -90   XYZ
    dof rx
    limits (0.0 90.0)
  end
  begin
     id 30
     name rthumb
     direction -0.707107 -6.34989e-011 0.707107   
     length 0.897521   
     axis -90 -45 1.62303e-014   XYZ
    dof rx rz
    limits (-45.0 45.0)
           (-45.0 45.0)
  end
:hierarchy
  begin
    root lhipjoint rhipjoint lowerback
    lhipjoint lfemur
    lfemur ltibia
    ltibia lfoot
    lfoot ltoes
    rhipjoint rfemur
    rfemur rtibia
    rtibia rfoot
    rfoot rtoes
    lowerback upperback
    upperback thorax
    thorax lowerneck lclavicle rclavicle
    lowerneck upperneck
    upperneck head
    lclavicle lhumerus
    lhumerus lradius
    lradius lwrist
    lwrist lhand lthumb
    lhand lfingers
    rclavicle rhumerus
    rhumerus rradius
    rradius rwrist
    rwrist rhand rthumb
    rhand rfingers
  end

#!OML:ASF \\sashay\E\Suitcase\Project 1\Capture day 1\Session 1\Male1.ASF
:FULLY-SPECIFIED
:DEGREES
693
root 1.32174 16.9532 18.0791 -1.19973 -4.70005 6.60104
lowerback 4.38857 0.975173 -7.70038
upperback -1.05806 0.821226 -1.04
thorax -3.66495 0.563696 3.17596
lowerneck -14.976 -0.985583 2.6067
upperneck 23.0845 0.0365448 -8.35661
head 9.78296 -0.719777 -3.36891
rclavicle -1.0871e-014 -3.04141e-014
rhumerus -23.0437 -22.903 -71.2571
rradius 21.3102
rwrist -12.7788
rhand -11.4205 22.0241
rfingers 7.12502
rthumb 14.6153 -7.44091
lclavicle -1.0871e-014 -3.04141e-014
lhumerus -33.1033 7.61513 80.0435
lradius 25.4962
lwrist -11.671
lhand -3.05139 43.3866
lfingers 7.12502
lthumb 22.6646 72.0758
rfemur -23.7928 -5.41064 13.1107
rtibia 71.9118
rfoot -5.40795 -5.00809
rtoes 17.104
lfemur -5.85808 -4.85136 -31.8908
ltibia 20.0586
lfoot -6.25041 -7.2605
ltoes 42.0922
694
root 1.31652 16.9349 18.1796 -1.26467 -4.32691 6.74999
lowerback 4.5755 0.722258 -7.87723
upperback -1.37054 0.440459 -1.00348
thorax -4.05787 0.401352 3.33905
lowerneck -13.68 -0.890486 2.4835
upperneck 22.5809 0.152402 -8.26168
head 9.36678 -0.636426 -3.26316
rclavicle 1.88783e-014 7.35503e-015
rhumerus -23.1547 -21.9183 -71.3694
rradius 21.5196
rwrist -13.4126
rhand -11.1795 21.6228
rfingers 7.12502
rthumb 14.8476 -7.82525
lclavicle 1.88783e-014 7.35503e-015
lhumerus -33.6012 7.19211 80.183
lradius 25.7508
lwrist -11.0507
lhand -3.07988 43.2914
lfingers 7.12502
lthumb 22.6373 71.9839
rfemur -24.4034 -5.37568 12.9859
rtibia 70.9666
rfoot -6.67412 -4.9766
rtoes 13.0194
lfemur -5.69669 -4.90469 -32.1891
ltibia 20.6128
lfoot -7.09769 -6.70668
ltoes 40.3767
695
root 1.319 16.9187 18.2761 -1.27371 -4.06018 6.73883
lowerback 4.70581 0.672619 -7.77671
upperback -1.39821 0.371069 -0.891426
thorax -4.15222 0.370131 3.40464
lowerneck -13.5787 -0.901498 2.20059
upperneck 22.3684 0.155789 -8.10719
head 9.27564 -0.636949 -3.15242
rclavicle 8.09426e-015 7.7526e-015
rhumerus -22.7704 -21.7387 -71.2373
rradius 21.5598
rwrist -13.6852
rhand -11.2123 21.9511
rfingers 7.12502
rthumb 14.8159 -7.49927
lclavicle 8.09426e-015 7.7526e-015
lhumerus -33.1991 7.5695 80.3292
lradius 25.8806
lwrist -11.5315
lhand -2.54295 43.3806
lfingers 7.12502
lthumb 23.1525 72.0092
rfemur -25.2796 -5.25226 12.9514
rtibia 69.8894
rfoot -7.22047 -5.06439
rtoes 14.6922
lfemur -5.58283 -4.882 -32.3615
ltibia 21.2373
lfoot -8.66728 -5.8934
ltoes 36.9168
696
root 1.3134 16.9113 18.3727 -0.986844 -3.41095 6.30733
lowerback 4.59123 0.524995 -7.3404
upperback -1.29351 0.223348 -0.746504
thorax -3.95624 0.27864 3.32506
lowerneck -14.2397 -0.893104 2.37181
upperneck 22.3363 0.126323 -8.11803
head 9.38686 -0.648141 -3.19796
rclavicle -4.25523e-015 -3.00165e-014
rhumerus -21.9876 -21.9389 -71.3203
rradius 21.5474
rwrist -13.7666
rhand -11.2823 21.9588
rfingers 7.12502
rthumb 14.7486 -7.49649
lclavicle -4.25523e-015 -3.00165e-014
lhumerus -32.1348 7.04565 80.6809
lradius 25.9866
lwrist -11.3162
lhand -3.06157 43.006
lfingers 7.12502
lthumb 22.6549 71.6964
rfemur -26.0697 -5.42566 13.5038
rtibia 68.525
rfoot -7.76586 -5.53983
rtoes 13.0809
lfemur -5.82383 -4.86751 -31.953
ltibia 22.0525
lfoot -9.99294 -5.8798
ltoes 34.3612
697
root 1.28752 16.9028 18.4752 -1.23091 -3.35551 5.58015
lowerback 4.80483 0.437401 -6.86407
upperback -1.25287 0.13243 -0.420596
thorax -4.02163 0.227505 3.40509
lowerneck -13.8657 -0.791267 2.28503
upperneck 22.085 0.241209 -7.97143
head 9.23622 -0.575602 -3.10549
rclavicle 3.53464e-015 -1.47101e-014
rhumerus -21.5416 -21.2478 -71.4621
rradius 21.5025
rwrist -13.8596
rhand -10.9508 21.6641
rfingers 7.12502
rthumb 15.0679 -7.76756
lclavicle 3.53464e-015 -1.47101e-014
lhumerus -32.0001 6.08358 81.1197
lradius 26.259
lwrist -9.95011
lhand -2.5139 42.6322
lfingers 7.12502
lthumb 23.1804 71.2574
rfemur -26.3062 -4.66565 14.461
rtibia 67.0717
rfoot -8.74497 -6.19764
rtoes 14.2073
lfemur -5.46607 -4.96288 -31.1669
ltibia 22.7114
lfoot -10.9201 -5.46275
ltoes 33.2529
698
root 1.26686 16.8968 18.5618 -0.779857 -2.81429 5.56423
lowerback 4.60141 0.254842 -7.02667
upperback -1.37751 -0.105305 -0.312212
thorax -4.0111 0.117742 3.62845
lowerneck -14.0121 -0.64704 2.25514
upperneck 21.9894 0.410736 -7.82432
head 9.24098 -0.48369 -3.02869
rclavicle 4.5969e-015 9.54166e-015
rhumerus -21.1044 -21.0218 -71.5681
rradius 21.6115
rwrist -14.0415
rhand -11.1502 22.0338
rfingers 7.12502
rthumb 14.8758 -7.41211
lclavicle 4.5969e-015 9.54166e-015
lhumerus -31.0897 5.27713 81.5519
lradius 26.0999
lwrist -8.97134
lhand -3.55394 42.7607
lfingers 7.12502
lthumb 22.1823 71.5079
rfemur -27.4045 -4.60816 14.536
rtibia 65.5206
rfoot -9.56534 -6.51034
rtoes 14.6363
lfemur -5.95522 -5.06398 -31.0821
ltibia 23.3885
lfoot -11.3906 -5.75873
ltoes 31.8629
699
root 1.27667 16.892 18.7002 -1.15775 -3.25018 5.85152
lowerback 4.50308 0.49292 -6.9872
upperback -1.33833 0.217926 -0.480845
thorax -3.95043 0.271914 3.40463
lowerneck -13.5723 -0.483625 2.67296
upperneck 21.7602 0.5364 -7.85366
head 9.08479 -0.381701 -3.08344
rclavicle -5.25537e-015 -3.18055e-015
rhumerus -21.2754 -21.0557 -71.4153
rradius 21.9471
rwrist -13.9542
rhand -10.6531 21.9831
rfingers 7.12502
rthumb 15.3547 -7.42675
lclavicle -5.25537e-015 -3.18055e-015
lhumerus -31.8083 5.55465 81.6156
lradius 27.1708
lwrist -9.7708
lhand -3.48051 42.5408
lfingers 7.12502
lthumb 22.2527 71.2796
rfemur -27.4463 -3.89219 14.0092
rtibia 63.8101
rfoot -9.8299 -6.62349
rtoes 13.9215
lfemur -5.24645 -5.23827 -31.6887
ltibia 23.807
lfoot -11.2207 -4.82082
ltoes 33.695
700
root 1.27221 16.8889 18.7911 -0.965248 -3.02477 5.37391
lowerback 4.38492 0.439558 -6.42311
upperback -1.16848 0.200795 -0.378308
thorax -3.69958 0.239584 3.19721
lowerneck -14.1253 -0.326274 3.18848
upperneck 21.5862 0.670667 -8.07645
head 9.13667 -0.30759 -3.23533
rclavicle -1.21321e-014 1.33186e-014
rhumerus -20.6609 -21.5237 -71.6044
rradius 22.2147
rwrist -13.6739
rhand -10.5915 21.9575
rfingers 7.12502
rthumb 15.414 -7.44784
lclavicle -1.21321e-014 1.33186e-014
lhumerus -31.0203 4.58633 82.0972
lradius 27.4231
lwrist -8.98132
lhand -3.52206 42.7236
lfingers 7.12502
lthumb 22.2128 71.4673
rfemur -28.0591 -3.66548 14.5016
rtibia 61.9847
rfoot -10.5844 -6.9224
rtoes 11.9387
lfemur -5.12412 -5.35138 -31.1877
ltibia 24.0397
lfoot -11.1681 -4.49173
ltoes 33.1662
701
root 1.2578 16.8898 18.8986 -0.911849 -2.88473 5.05739
lowerback 4.38089 0.373531 -6.23435
upperback -1.15625 0.132234 -0.16287
thorax -3.67681 0.202954 3.32062
lowerneck -14.2375 -0.259763 3.08526
upperneck 21.4923 0.798733 -8.14556
head 9.13447 -0.264407 -3.22559
rclavicle 6.95746e-015 -1.98785e-015
rhumerus -20.3674 -21.656 -71.5559
rradius 22.4647
rwrist -13.2034
rhand -10.0798 21.8118
rfingers 7.12502
rthumb 15.9068 -7.55487
lclavicle 6.95746e-015 -1.98785e-015
lhumerus -30.4751 4.13792 82.4287
lradius 27.5564
lwrist -8.90578
lhand -2.44587 43.4495
lfingers 7.12502
lthumb 23.2457 72.0664
rfemur -28.3069 -3.17996 14.795
rtibia 60.0236
rfoot -11.4218 -7.18929
rtoes 11.7229
lfemur -4.57071 -5.68094 -30.8825
ltibia 23.9465
lfoot -11.2717 -3.4961
ltoes 31.2924
702
root 1.2517 16.8857 19.0018 -0.716545 -2.5726 5.28876
lowerback 4.3372 0.278588 -6.43425
upperback -1.41884 -0.01461 -0.2132
thorax -3.91178 0.147291 3.39138
lowerneck -13.5292 -0.337254 2.81478
upperneck 21.0834 0.62572 -7.66105
head 8.84904 -0.297466 -3.01258
rclavicle -7.03822e-015 -3.97569e-015
rhumerus -20.3458 -20.2729 -71.7155
rradius 22.3424
rwrist -14.6453
rhand -10.257 22.4226
rfingers 7.12502
rthumb 15.7362 -6.95762
lclavicle -7.03822e-015 -3.97569e-015
lhumerus -30.6824 3.87347 82.6224
lradius 28.0521
lwrist -8.99428
lhand -2.34825 42.9448
lfingers 7.12502
lthumb 23.3393 71.5499
rfemur -28.7536 -2.98335 14.3902
rtibia 57.9676
rfoot -11.7231 -7.47219
rtoes 13.1261
lfemur -4.43658 -5.72201 -31.1821
ltibia 23.9124
lfoot -11.7947 -4.6984
ltoes 29.4946
703
root 1.24294 16.8896 19.1018 -0.710106 -2.28714 5.28389
lowerback 4.46225 0.27688 -6.37604
upperback -1.41561 -0.0224557 -0.205153
thorax -3.97812 0.144068 3.36788
lowerneck -13.593 -0.320889 2.80398
upperneck 21.0363 0.63394 -7.59653
head 8.84522 -0.287809 -2.98709
rclavicle -5.95733e-015 2.18663e-014
rhumerus -20.1137 -20.1192 -71.7183
rradius 22.4227
rwrist -14.8582
rhand -10.3047 22.3963
rfingers 7.12502
rthumb 15.6902 -6.98759
lclavicle -5.95733e-015 2.18663e-014
lhumerus -30.19 2.81613 83.0661
lradius 28.3326
lwrist -8.32419
lhand -2.6762 43.638
lfingers 7.12502
lthumb 23.0247 72.2826
rfemur -28.9663 -2.78306 14.2948
rtibia 55.817
rfoot -12.0651 -8.12734
rtoes 10.958
lfemur -3.77012 -5.78518 -31.1843
ltibia 23.6326
lfoot -12.4267 -3.07726
ltoes 27.9948
704
root 1.22115 16.9006 19.2004 -0.245488 -1.95552 4.81255
lowerback 4.123 0.144675 -6.10727
upperback -1.47836 -0.152319 0.0110568
thorax -3.83652 0.0729261 3.45099
lowerneck -13.6242 -0.257278 3.01214
upperneck 20.7337 0.689653 -7.74047
head 8.75132 -0.256736 -3.05848
rclavicle 2.84511e-015 -4.37326e-015
rhumerus -19.6309 -20.002 -71.823
rradius 22.3973
rwrist -14.9424
rhand -10.2163 22.2963
rfingers 7.12502
rthumb 15.7753 -7.08085
lclavicle 2.84511e-015 -4.37326e-015
lhumerus -29.8983 2.16593 83.4201
lradius 28.9682
lwrist -8.05525
lhand -2.68254 43.7138
lfingers 7.12502
lthumb 23.0186 72.3592
rfemur -29.5233 -2.26485 14.7409
rtibia 53.4953
rfoot -12.1363 -9.08773
rtoes 11.388
lfemur -3.65016 -5.96451 -30.5837
ltibia 23.296
lfoot -12.3317 -2.10865
ltoes 29.347
